<?xml version="1.0" encoding="UTF-8" standalone="no"?>
<svg
   width="20858"
   zoomAndPan="magnify"
   viewBox="0 0 15643.5 2405.249967"
   height="3207"
   preserveAspectRatio="xMidYMid meet"
   version="1.2"
   id="svg29"
   sodipodi:docname="Medimate1.svg"
   inkscape:version="1.4.2 (f4327f4, 2025-05-13)"
   xmlns:inkscape="http://www.inkscape.org/namespaces/inkscape"
   xmlns:sodipodi="http://sodipodi.sourceforge.net/DTD/sodipodi-0.dtd"
   xmlns="http://www.w3.org/2000/svg"
   xmlns:svg="http://www.w3.org/2000/svg">
  <sodipodi:namedview
     id="namedview29"
     pagecolor="#505050"
     bordercolor="#ffffff"
     borderopacity="1"
     inkscape:showpageshadow="0"
     inkscape:pageopacity="0"
     inkscape:pagecheckerboard="1"
     inkscape:deskcolor="#505050"
     inkscape:zoom="0.081263784"
     inkscape:cx="10429"
     inkscape:cy="1605.8814"
     inkscape:window-width="1920"
     inkscape:window-height="1051"
     inkscape:window-x="-9"
     inkscape:window-y="-9"
     inkscape:window-maximized="1"
     inkscape:current-layer="svg29" />
  <defs
     id="defs1">
    <clipPath
       id="4f42cfaaf4">
      <path
         d="M 9598.648438 641 L 9885 641 L 9885 853 L 9598.648438 853 Z M 9598.648438 641 "
         id="path1" />
    </clipPath>
    <clipPath
       id="c5d7ceb8c6">
      <rect
         x="0"
         width="6621"
         y="0"
         height="1645"
         id="rect1" />
    </clipPath>
  </defs>
  <g
     id="4b244328ff"
     transform="matrix(0.48493253,0,0,0.48493253,2368.9661,197.60422)">
    <g
       clip-rule="nonzero"
       clip-path="url(#4f42cfaaf4)"
       id="g2">
      <path
         style="fill:#e8cdb0;fill-opacity:1;fill-rule:nonzero;stroke:none"
         d="m 9617.2344,849.85937 c 0,0 -48.3047,-113.07421 1.4062,-208.23828 h 265.6367 l -1.4062,210.59766 z m 0,0"
         id="path2" />
    </g>
    <path
       style="fill:#e8cdb0;fill-opacity:1;fill-rule:nonzero;stroke:none"
       d="M 10128.707,855.01953 H 9881.543 V 429.05078 c 125.254,-100.17187 248,-3.33984 248,-3.33984 z m 0,0"
       id="path3" />
    <path
       style="fill:#024059;fill-opacity:1;fill-rule:nonzero;stroke:none"
       d="M 10128.762,1520.5977 H 9881.6992 V 852.26953 h 247.0628 z m 0,0"
       id="path4" />
    <path
       style="fill:#024059;fill-opacity:1;fill-rule:nonzero;stroke:none"
       d="m 10126.977,1523.9219 c 0,2.0625 -0.05,4.125 -0.145,6.1875 -0.102,2.0586 -0.246,4.1172 -0.445,6.1679 -0.196,2.0547 -0.442,4.1016 -0.739,6.1407 -0.293,2.039 -0.636,4.0703 -1.027,6.0937 -0.391,2.0235 -0.832,4.0391 -1.32,6.0391 -0.488,2 -1.024,3.9883 -1.606,5.9609 -0.582,1.9766 -1.211,3.9336 -1.89,5.875 -0.676,1.9414 -1.399,3.8672 -2.164,5.7735 -0.77,1.9062 -1.582,3.789 -2.442,5.6562 -0.859,1.8633 -1.761,3.707 -2.707,5.5274 -0.949,1.8164 -1.937,3.6132 -2.969,5.3828 -1.035,1.7695 -2.105,3.5117 -3.222,5.2265 -1.117,1.7149 -2.274,3.3985 -3.469,5.0586 -1.195,1.6563 -2.43,3.2813 -3.703,4.875 -1.274,1.5938 -2.586,3.1563 -3.934,4.6875 -1.347,1.5274 -2.734,3.0196 -4.152,4.4805 -1.422,1.457 -2.875,2.8789 -4.363,4.2656 -1.489,1.3828 -3.008,2.7305 -4.559,4.0391 -1.555,1.3086 -3.137,2.5781 -4.75,3.8086 -1.609,1.2265 -3.254,2.414 -4.922,3.5625 -1.668,1.1445 -3.367,2.2461 -5.09,3.3086 -1.718,1.0586 -3.468,2.0781 -5.238,3.0507 -1.769,0.9727 -3.562,1.8985 -5.379,2.7813 -1.816,0.8828 -3.648,1.7187 -5.504,2.5078 -1.855,0.7891 -3.73,1.5313 -5.621,2.2266 -1.89,0.6953 -3.797,1.3398 -5.719,1.9375 -1.921,0.6015 -3.855,1.1523 -5.8,1.6523 -1.95,0.5 -3.91,0.9531 -5.879,1.3555 -1.969,0.4023 -3.946,0.7539 -5.934,1.0586 -1.984,0.3008 -3.976,0.5547 -5.976,0.7578 -1.996,0.1992 -4,0.3516 -6.004,0.4531 -2.008,0.1016 -4.012,0.1524 -6.02,0.1524 -2.008,0 -4.015,-0.051 -6.0233,-0.1524 -2.0039,-0.1015 -4.0078,-0.2539 -6.0039,-0.4531 -2,-0.2031 -3.9922,-0.457 -5.9765,-0.7578 -1.9883,-0.3047 -3.9649,-0.6563 -5.9336,-1.0586 -1.9688,-0.4024 -3.9297,-0.8555 -5.875,-1.3555 -1.9493,-0.5039 -3.8829,-1.0508 -5.8047,-1.6523 -1.9219,-0.5977 -3.8282,-1.2461 -5.7188,-1.9375 -1.8906,-0.6953 -3.7656,-1.4375 -5.6211,-2.2266 -1.8515,-0.7891 -3.6875,-1.625 -5.5039,-2.5078 -1.8164,-0.8828 -3.6094,-1.8086 -5.3789,-2.7813 -1.7695,-0.9726 -3.5156,-1.9921 -5.2383,-3.0507 -1.7226,-1.0625 -3.4179,-2.1641 -5.0898,-3.3086 -1.668,-1.1485 -3.3086,-2.336 -4.9219,-3.5625 -1.6133,-1.2305 -3.1953,-2.5 -4.75,-3.8086 -1.5508,-1.3086 -3.0703,-2.6563 -4.5586,-4.0391 -1.4883,-1.3867 -2.9414,-2.8086 -4.3633,-4.2656 -1.4179,-1.4609 -2.8007,-2.9531 -4.1523,-4.4805 -1.3477,-1.5312 -2.6602,-3.0937 -3.9336,-4.6875 -1.2734,-1.5937 -2.5078,-3.2187 -3.7031,-4.875 -1.1953,-1.6601 -2.3516,-3.3437 -3.4688,-5.0586 -1.1133,-1.7148 -2.1875,-3.457 -3.2226,-5.2265 -1.0313,-1.7696 -2.0196,-3.5664 -2.9649,-5.3828 -0.9492,-1.8204 -1.8515,-3.6641 -2.7109,-5.5274 -0.8555,-1.8672 -1.6719,-3.75 -2.4375,-5.6562 -0.7695,-1.9063 -1.4922,-3.8321 -2.168,-5.7735 -0.6758,-1.9414 -1.3086,-3.8984 -1.8906,-5.875 -0.582,-1.9726 -1.1172,-3.9609 -1.6055,-5.9609 -0.4883,-2 -0.9297,-4.0156 -1.3203,-6.0391 -0.3906,-2.0234 -0.7344,-4.0547 -1.0273,-6.0937 -0.2969,-2.0391 -0.543,-4.086 -0.7383,-6.1407 -0.1953,-2.0507 -0.3438,-4.1093 -0.4414,-6.1679 -0.1016,-2.0625 -0.1485,-4.125 -0.1485,-6.1875 0,-2.0625 0.047,-4.125 0.1485,-6.1836 0.098,-2.0625 0.2461,-4.1172 0.4414,-6.1719 0.1953,-2.0508 0.4414,-4.0976 0.7383,-6.1406 0.2929,-2.0391 0.6367,-4.0703 1.0273,-6.0938 0.3906,-2.0234 0.832,-4.0351 1.3203,-6.039 0.4883,-2 1.0235,-3.9883 1.6055,-5.961 0.582,-1.9726 1.2148,-3.9336 1.8906,-5.875 0.6758,-1.9414 1.3985,-3.8672 2.168,-5.7734 0.7656,-1.9063 1.582,-3.7891 2.4375,-5.6563 0.8594,-1.8632 1.7617,-3.707 2.7109,-5.5234 0.9453,-1.8203 1.9336,-3.6133 2.9649,-5.3828 1.0351,-1.7695 2.1093,-3.5117 3.2226,-5.2266 1.1172,-1.7187 2.2735,-3.4023 3.4688,-5.0586 1.1953,-1.6601 2.4297,-3.2851 3.7031,-4.8789 1.2734,-1.5937 2.5859,-3.1562 3.9336,-4.6836 1.3516,-1.5312 2.7344,-3.0234 4.1523,-4.4804 1.4219,-1.461 2.875,-2.8828 4.3633,-4.2657 1.4883,-1.3867 3.0078,-2.7343 4.5586,-4.0429 1.5547,-1.3086 3.1367,-2.5781 4.75,-3.8047 1.6133,-1.2305 3.2539,-2.418 4.9219,-3.5625 1.6719,-1.1484 3.3672,-2.25 5.0898,-3.3125 1.7227,-1.0586 3.4688,-2.0742 5.2383,-3.0469 1.7695,-0.9726 3.5625,-1.9023 5.3789,-2.7851 1.8164,-0.8789 3.6524,-1.7149 5.5078,-2.5039 1.8516,-0.7891 3.7266,-1.5313 5.6172,-2.2266 1.8906,-0.6953 3.7969,-1.3438 5.7188,-1.9414 1.9218,-0.5977 3.8554,-1.1485 5.8047,-1.6524 1.9453,-0.5 3.9062,-0.9531 5.875,-1.3554 1.9687,-0.4024 3.9453,-0.7539 5.9336,-1.0547 1.9843,-0.3047 3.9765,-0.5547 5.9765,-0.7578 1.9961,-0.2032 4,-0.3555 6.0039,-0.4571 2.0083,-0.1015 4.0153,-0.1523 6.0233,-0.1523 2.008,0 4.012,0.051 6.02,0.1523 2.004,0.1016 4.008,0.2539 6.004,0.4571 2,0.2031 3.992,0.4531 5.976,0.7578 1.988,0.3008 3.965,0.6523 5.934,1.0547 1.969,0.4023 3.929,0.8554 5.879,1.3554 1.945,0.5039 3.879,1.0547 5.8,1.6524 1.922,0.5976 3.829,1.2461 5.719,1.9414 1.891,0.6953 3.766,1.4375 5.621,2.2266 1.856,0.789 3.688,1.625 5.504,2.5039 1.817,0.8828 3.61,1.8125 5.379,2.7851 1.77,0.9727 3.52,1.9883 5.238,3.0469 1.723,1.0625 3.422,2.1641 5.09,3.3125 1.668,1.1445 3.313,2.332 4.922,3.5625 1.613,1.2266 3.195,2.4961 4.75,3.8047 1.551,1.3086 3.07,2.6562 4.559,4.0429 1.488,1.3829 2.941,2.8047 4.363,4.2657 1.418,1.457 2.805,2.9492 4.152,4.4804 1.348,1.5274 2.66,3.0899 3.934,4.6836 1.273,1.5938 2.508,3.2188 3.703,4.8789 1.195,1.6563 2.352,3.3399 3.469,5.0586 1.117,1.7149 2.187,3.4571 3.222,5.2266 1.032,1.7695 2.02,3.5625 2.969,5.3828 0.946,1.8164 1.848,3.6602 2.707,5.5234 0.86,1.8672 1.672,3.75 2.442,5.6563 0.765,1.9062 1.488,3.832 2.164,5.7734 0.679,1.9414 1.308,3.9024 1.89,5.875 0.582,1.9727 1.118,3.961 1.606,5.961 0.488,2.0039 0.929,4.0156 1.32,6.039 0.391,2.0235 0.734,4.0547 1.027,6.0938 0.297,2.043 0.543,4.0898 0.739,6.1406 0.199,2.0547 0.343,4.1094 0.445,6.1719 0.1,2.0586 0.145,4.1211 0.145,6.1836 z m 0,0"
       id="path5" />
    <path
       style="fill:#024059;fill-opacity:1;fill-rule:nonzero;stroke:none"
       d="m 10126.703,1334.0352 v 395.6836 h 1.672 c 0,0 -555.8867,-178.6407 -1.672,-395.6836 z m 0,0"
       id="path6" />
    <path
       style="fill:#024059;fill-opacity:1;fill-rule:nonzero;stroke:none"
       d="m 9884.6523,1511.0078 242.8867,217.0391 c 0,0 -275.4413,-0.836 -242.8867,-217.0391 z m 0,0"
       id="path7" />
    <path
       style="fill:#024059;fill-opacity:1;fill-rule:nonzero;stroke:none"
       d="m 10125.871,1427.5313 c 12.063,149.8789 198.649,101.8398 198.649,101.8398 5.007,153.5977 8.347,198.6758 8.347,198.6758 h -206.996 c 0,0 -6.164,-377.0664 0,-300.5156 z m 0,0"
       id="path8" />
    <path
       style="fill:#dfb994;fill-opacity:1;fill-rule:nonzero;stroke:none"
       d="m 9881.625,641.16016 h 246.703 v 209.54296 h -246.703 z m 0,0"
       id="path9" />
    <g
       transform="translate(4512,380)"
       id="g29">
      <g
         clip-path="url(#c5d7ceb8c6)"
         id="g28">
        <g
           style="fill:#024059;fill-opacity:1"
           id="g11">
          <g
             transform="translate(1.03484,1328.9386)"
             id="g10">
            <path
               style="stroke:none"
               d="m 1168.5156,-567.14062 c 4.5625,31.05468 6.8438,75.35156 6.8438,132.89062 V 0 H 986.32812 v -379.45312 c 0,-46.58204 -1.82812,-86.3125 -5.48437,-119.1875 -10.05469,-77.625 -51.15234,-116.4375 -123.29688,-116.4375 -88.58593,0 -132.875,80.36718 -132.875,241.09375 V 0 H 537 v -379.45312 c 0,-46.58204 -1.82813,-86.3125 -5.48438,-119.1875 -10.04296,-77.625 -51.59375,-116.4375 -124.65625,-116.4375 -87.67968,0 -131.51562,80.36718 -131.51562,241.09375 V 0 H 86.296875 V -728.78125 H 275.34375 v 110.95313 L 328.78125,-705.5 c 40.17578,-28.30078 91.77344,-42.45312 154.79687,-42.45312 57.53125,0 105.24219,12.55859 143.14063,37.67187 37.90625,25.11719 64.61719,58.67969 80.14062,100.6875 L 778.09375,-705.5 c 40.1875,-28.30078 92.24219,-42.45312 156.17187,-42.45312 66.66408,0 120.08598,16.89843 160.26568,50.6875 40.1875,33.78125 64.8476,77.15625 73.9843,130.125 z m 0,0"
               id="path10" />
          </g>
        </g>
        <g
           style="fill:#024059;fill-opacity:1"
           id="g13">
          <g
             transform="translate(1255.8525,1328.9386)"
             id="g12">
            <path
               style="stroke:none"
               d="m 747.95312,-379.45312 c 0,26.48046 -0.91406,47.9375 -2.73437,64.375 h -517.8125 c 10.95703,134.25 67.11719,201.37499 168.48437,201.37499 41.10157,0 75.125,-10.95703 102.0625,-32.87499 26.9375,-21.91407 43.60157,-52.05079 50,-90.40625 H 737 c -18.26172,83.10546 -58.21484,146.574214 -119.85938,190.406245 -61.64843,43.835937 -136.76562,65.75 -225.35937,65.75 -105.02344,0 -190.41406,-32.644531 -256.17188,-97.9375 C 69.859375,-144.06641 36.984375,-238.36328 36.984375,-361.65625 c 0,-113.23828 34.015625,-205.92969 102.046875,-278.07812 68.03906,-72.14454 157.31641,-108.21875 267.82812,-108.21875 106.85157,0 190.41407,35.16406 250.6875,105.48437 60.26954,70.3125 90.40625,157.98438 90.40625,263.01563 z m -349.3125,-235.625 c -94.0625,0 -149.32031,58.90625 -165.76562,176.71875 h 320.5625 c -12.79297,-117.8125 -64.39063,-176.71875 -154.79688,-176.71875 z m 0,0"
               id="path11" />
          </g>
        </g>
        <g
           style="fill:#024059;fill-opacity:1"
           id="g15">
          <g
             transform="translate(2047.648,1328.9386)"
             id="g14">
            <path
               style="stroke:none"
               d="M 794.53125,-1006.875 V 0 H 605.48437 V -112.32813 L 550.70312,-31.5 C 506.85937,2.28125 443.84375,19.171875 361.65625,19.171875 c -100.46094,0 -179.6875,-34.242187 -237.6875,-102.734375 -57.992188,-68.5 -86.984375,-157.53906 -86.984375,-267.125 0,-126.03125 33.332031,-223.75 99.999995,-293.15625 66.66407,-69.40625 149.77344,-104.10937 249.32813,-104.10937 74.88281,0 131.96094,13.69921 171.23437,41.09375 l 47.9375,75.34375 V -1006.875 Z m -378.07813,893.17187 c 56.61329,0 102.26954,-19.40624 136.96875,-58.21874 34.70704,-38.8125 52.0625,-100.22657 52.0625,-184.25 v -35.60938 c 0,-75.80078 -17.80859,-131.96875 -53.42187,-168.5 -35.61719,-36.53125 -78.53906,-54.79687 -128.76563,-54.79687 -56.625,0 -102.52343,21.69531 -137.6875,65.07812 -35.15625,43.375 -52.73437,105.70313 -52.73437,186.98438 0,74.88671 16.66406,135.16406 50,180.82812 33.34375,45.65625 77.86719,68.48437 133.57812,68.48437 z m 0,0"
               id="path13" />
          </g>
        </g>
        <g
           style="fill:#024059;fill-opacity:1"
           id="g17">
          <g
             transform="translate(2931.2258,1328.9386)"
             id="g16">
            <path
               style="stroke:none"
               d="m 105.48438,-971.9375 c 19.17578,-18.71875 44.28906,-28.0781 75.34374,-28.0781 31.05079,0 56.16407,9.35935 75.34375,28.0781 19.17579,18.71875 28.76563,42.69531 28.76563,71.92188 0,30.13671 -9.58984,54.33984 -28.76563,72.60937 -19.17968,18.26172 -44.29296,27.39063 -75.34375,27.39063 -31.05468,0 -56.16796,-9.12891 -75.34374,-27.39063 -19.179692,-18.26953 -28.76563,-42.47266 -28.76563,-72.60937 0,-29.22657 9.585938,-53.20313 28.76563,-71.92188 z M 275.34375,0 H 86.296875 V -728.78125 H 275.34375 Z m 0,0"
               id="path15" />
          </g>
        </g>
        <g
           style="fill:#024059;fill-opacity:1"
           id="g19">
          <g
             transform="translate(3295.6161,1328.9386)"
             id="g18">
            <path
               style="stroke:none"
               d="M 1141.125,-945.21875 V 0 H 952.07812 v -437 c 0,-149.76953 0.91016,-257.53516 2.73438,-323.29687 -25.57422,109.59375 -54.79688,216.90625 -87.67188,321.9375 L 734.26562,0 H 528.78125 l -135.625,-439.73437 c -34.69922,-115.98829 -63.01172,-222.38282 -84.9375,-319.1875 1.83203,65.76171 2.75,173.07031 2.75,321.92187 V 0 H 121.92188 V -945.21875 H 420.5625 l 213.70312,771.25 213.70313,-771.25 z m 0,0"
               id="path17" />
          </g>
        </g>
        <g
           style="fill:#024059;fill-opacity:1"
           id="g21">
          <g
             transform="translate(4524.4059,1328.9386)"
             id="g20">
            <path
               style="stroke:none"
               d="m 509.59375,0 -13.6875,-106.84375 -35.625,78.078125 c -47.49219,31.957031 -107.76563,47.9375 -180.82813,47.9375 -66.66796,0 -122.375,-18.71875 -167.12499,-56.15625 -44.750005,-37.445313 -67.125005,-89.503905 -67.125005,-156.171875 0,-80.36328 34.015625,-142.23437 102.046875,-185.60937 68.03906,-43.38282 167.81641,-65.07813 299.32812,-65.07813 h 46.57813 v -15.0625 c 0,-29.22656 -0.91406,-52.0625 -2.73438,-68.5 -6.39843,-58.44531 -43.83984,-87.67187 -112.32812,-87.67187 -75.80469,0 -116.44531,41.09375 -121.92188,123.28125 l -183.562495,1.375 c 2.738281,-80.36329 33.101565,-143.375 91.093745,-189.03125 57.98829,-45.66407 131.73438,-68.5 221.23438,-68.5 181.73828,0 279,71.6875 291.78125,215.0625 2.73828,34.71093 4.10937,72.15234 4.10937,112.32812 v 235.625 c 0,55.71094 4.56641,117.355469 13.70313,184.9375 z M 352.0625,-113.70313 c 40.1875,0 73.75,-13.69531 100.6875,-41.09374 26.9375,-27.39454 40.40625,-65.29688 40.40625,-113.70313 v -58.90625 c -168.04297,-11.875 -252.0625,27.85547 -252.0625,119.1875 0,63.01172 36.98828,94.51562 110.96875,94.51562 z m 0,0"
               id="path19" />
          </g>
        </g>
        <g
           style="fill:#024059;fill-opacity:1"
           id="g23">
          <g
             transform="translate(5294.3243,1328.9386)"
             id="g22">
            <path
               style="stroke:none"
               d=""
               id="path21" />
          </g>
        </g>
        <g
           style="fill:#024059;fill-opacity:1"
           id="g25">
          <g
             transform="translate(5560.0827,1328.9386)"
             id="g24">
            <path
               style="stroke:none"
               d=""
               id="path23" />
          </g>
        </g>
        <g
           style="fill:#024059;fill-opacity:1"
           id="g27">
          <g
             transform="translate(5825.8524,1328.9386)"
             id="g26">
            <path
               style="stroke:none"
               d="m 747.95312,-379.45312 c 0,26.48046 -0.91406,47.9375 -2.73437,64.375 h -517.8125 c 10.95703,134.25 67.11719,201.37499 168.48437,201.37499 41.10157,0 75.125,-10.95703 102.0625,-32.87499 26.9375,-21.91407 43.60157,-52.05079 50,-90.40625 H 737 c -18.26172,83.10546 -58.21484,146.574214 -119.85938,190.406245 -61.64843,43.835937 -136.76562,65.75 -225.35937,65.75 -105.02344,0 -190.41406,-32.644531 -256.17188,-97.9375 C 69.859375,-144.06641 36.984375,-238.36328 36.984375,-361.65625 c 0,-113.23828 34.015625,-205.92969 102.046875,-278.07812 68.03906,-72.14454 157.31641,-108.21875 267.82812,-108.21875 106.85157,0 190.41407,35.16406 250.6875,105.48437 60.26954,70.3125 90.40625,157.98438 90.40625,263.01563 z m -349.3125,-235.625 c -94.0625,0 -149.32031,58.90625 -165.76562,176.71875 h 320.5625 c -12.79297,-117.8125 -64.39063,-176.71875 -154.79688,-176.71875 z m 0,0"
               id="path25" />
          </g>
        </g>
      </g>
    </g>
  </g>
</svg>
