<svg xmlns="http://www.w3.org/2000/svg" xmlns:xlink="http://www.w3.org/1999/xlink" width="21385" zoomAndPan="magnify" viewBox="0 0 16038.75 4439.249907" height="5919" preserveAspectRatio="xMidYMid meet" version="1.2"><defs><clipPath id="bf1652c198"><path d="M 2601 0 L 11415 0 L 11415 4438.5 L 2601 4438.5 Z M 2601 0 "/></clipPath><clipPath id="09f5417782"><path d="M 3.746094 0 L 4173 0 L 4173 4005 L 3.746094 4005 Z M 3.746094 0 "/></clipPath><clipPath id="af8b86c6a6"><path d="M 3055 650 L 5150.46875 650 L 5150.46875 2184 L 3055 2184 Z M 3055 650 "/></clipPath><clipPath id="0d0d7d07fc"><path d="M 1460 2851 L 3439 2851 L 3439 4438.5 L 1460 4438.5 Z M 1460 2851 "/></clipPath><clipPath id="e0fbe20211"><path d="M 1247 2655 L 3635 2655 L 3635 4438.5 L 1247 4438.5 Z M 1247 2655 "/></clipPath><clipPath id="244b6093dd"><path d="M 2498 0 L 5150.46875 0 L 5150.46875 2588 L 2498 2588 Z M 2498 0 "/></clipPath><clipPath id="14f90c1a60"><path d="M 7240.488281 1888 L 7533 1888 L 7533 2105 L 7240.488281 2105 Z M 7240.488281 1888 "/></clipPath><clipPath id="277c441350"><path d="M 2024 1620 L 8813.421875 1620 L 8813.421875 3307 L 2024 3307 Z M 2024 1620 "/></clipPath><clipPath id="cc8759a6a1"><rect x="0" width="6790" y="0" height="1687"/></clipPath><clipPath id="f8dd1e8e0e"><rect x="0" width="8814" y="0" height="4439"/></clipPath></defs><g id="34a047af7c"><g clip-rule="nonzero" clip-path="url(#bf1652c198)"><g transform="matrix(1,0,0,1,2601,0)"><g clip-path="url(#f8dd1e8e0e)"><g clip-rule="nonzero" clip-path="url(#09f5417782)"><path style="fill:none;stroke-width:4.094;stroke-linecap:butt;stroke-linejoin:miter;stroke:#024059;stroke-opacity:1;stroke-miterlimit:4;" d="M 271.045586 710.828379 C 243.599401 713.171951 216.153943 715.515523 198.452326 709.953301 C 180.750709 704.39126 172.794567 690.923966 172.556376 678.810014 C 172.318367 666.696063 179.797947 655.936355 193.217038 651.648546 C 206.63631 647.360738 225.993823 649.545549 234.561054 648.891042 C 243.128467 648.236536 240.905235 644.742893 237.493592 633.273897 C 234.08195 621.804901 229.48226 602.361993 232.693292 586.426965 C 235.904506 570.491757 246.92608 558.06659 257.868861 555.378466 C 268.811824 552.690341 279.674543 559.739438 288.068397 574.717755 C 296.462431 589.696253 302.38633 612.601988 308.633746 626.864169 C 314.88098 641.126169 321.451006 646.742993 326.752014 645.156825 C 332.053204 643.570656 336.085013 634.781856 335.478826 625.088424 C 334.872457 615.394992 329.628092 604.798011 329.74519 596.094808 C 329.862288 587.391605 335.34085 580.582722 340.819593 573.773478 " transform="matrix(21.516396,0,0,21.676646,-3659.318624,-11961.590291)"/></g><g clip-rule="nonzero" clip-path="url(#af8b86c6a6)"><path style="fill:none;stroke-width:4.18;stroke-linecap:butt;stroke-linejoin:miter;stroke:#024059;stroke-opacity:1;stroke-miterlimit:4;" d="M 335.207587 629.340454 C 341.420241 626.639522 347.632535 623.938774 353.431001 624.073729 C 359.229647 624.208683 364.613743 627.179338 370.971066 626.820693 C 377.32839 626.462048 384.658039 622.773917 389.891702 618.429871 C 395.125364 614.086011 398.262499 609.086605 401.399633 604.087015 " transform="matrix(21.682056,0,0,21.129858,-3699.630395,-11614.077424)"/></g><g clip-rule="nonzero" clip-path="url(#0d0d7d07fc)"><path style="fill:none;stroke-width:4.18;stroke-linecap:butt;stroke-linejoin:miter;stroke:#024059;stroke-opacity:1;stroke-miterlimit:4;" d="M 303.711925 731.290984 C 303.71211 731.669211 303.702691 732.04707 303.684223 732.424743 C 303.66557 732.802417 303.637868 733.179537 303.600747 733.555918 C 303.563627 733.932114 303.517456 734.307387 303.461867 734.681367 C 303.406463 735.055347 303.341825 735.427849 303.267953 735.79869 C 303.194265 736.16953 303.111343 736.538524 303.019557 736.905301 C 302.927586 737.272079 302.82675 737.636455 302.71705 737.998246 C 302.607349 738.360222 302.488784 738.719058 302.361354 739.075124 C 302.233924 739.43119 302.097815 739.783747 301.95321 740.133164 C 301.80842 740.482582 301.655135 740.828121 301.493539 741.169966 C 301.331759 741.511812 301.161852 741.84941 300.983635 742.182944 C 300.805418 742.516479 300.619075 742.845397 300.424606 743.169698 C 300.230322 743.494183 300.028096 743.813497 299.81793 744.12801 C 299.607763 744.442338 299.390209 744.75131 299.164898 745.055111 C 298.939772 745.358912 298.707074 745.656988 298.467174 745.949339 C 298.227274 746.241505 297.980355 746.527761 297.726419 746.807923 C 297.472483 747.088085 297.211898 747.361968 296.94448 747.629386 C 296.676878 747.896805 296.403181 748.157391 296.12302 748.411328 C 295.842859 748.665265 295.556604 748.912184 295.264254 749.152085 C 294.971904 749.391987 294.674014 749.624501 294.370214 749.849812 C 294.066414 750.074939 293.757443 750.292678 293.442932 750.502661 C 293.128605 750.712829 292.809292 750.915055 292.484807 751.109525 C 292.160508 751.30381 291.831591 751.490153 291.498058 751.668556 C 291.164524 751.846773 290.826927 752.01668 290.485083 752.178461 C 290.143239 752.340057 289.797701 752.493343 289.448285 752.637949 C 289.098869 752.782739 288.746128 752.918849 288.390248 753.046095 C 288.034184 753.173525 287.675164 753.292091 287.313374 753.401976 C 286.9514 753.511862 286.587209 753.612698 286.220248 753.704484 C 285.853472 753.796271 285.484665 753.879193 285.113825 753.952881 C 284.742802 754.026754 284.3703 754.091392 283.996322 754.146797 C 283.622343 754.202386 283.247071 754.248741 282.870877 754.285677 C 282.494497 754.322798 282.117379 754.3505 281.739706 754.369153 C 281.362034 754.387621 280.984177 754.39704 280.605951 754.39704 C 280.227909 754.39704 279.849867 754.387621 279.472195 754.369153 C 279.094523 754.3505 278.717589 754.322798 278.341209 754.285677 C 277.96483 754.248741 277.589743 754.202386 277.21558 754.146797 C 276.841601 754.091392 276.4691 754.026754 276.098261 753.952881 C 275.727421 753.879193 275.358429 753.796271 274.991653 753.704484 C 274.624877 753.612513 274.260501 753.511862 273.898712 753.401976 C 273.536737 753.292091 273.177902 753.17371 272.821838 753.04628 C 272.465773 752.918849 272.113033 752.782739 271.763616 752.638133 C 271.414385 752.493343 271.068662 752.340242 270.726818 752.178461 C 270.384974 752.016865 270.047377 751.846773 269.713844 751.668556 C 269.38031 751.490338 269.051394 751.303994 268.727094 751.109525 C 268.402794 750.915055 268.083297 750.712829 267.76897 750.502846 C 267.454458 750.292678 267.145487 750.075124 266.841687 749.849812 C 266.538072 749.624501 266.239997 749.391987 265.947647 749.152085 C 265.655297 748.912184 265.369042 748.665265 265.088881 748.411328 C 264.80872 748.157391 264.535023 747.896805 264.267606 747.629386 C 264.000188 747.361968 263.739418 747.088085 263.485482 746.807923 C 263.231546 746.527761 262.984628 746.241505 262.744727 745.949339 C 262.504827 745.656988 262.272314 745.358912 262.047003 745.055111 C 261.821877 744.75131 261.604138 744.442338 261.393972 744.127825 C 261.18399 743.813497 260.981579 743.493998 260.787295 743.169698 C 260.592826 742.845397 260.406483 742.516479 260.228266 742.182944 C 260.050049 741.84941 259.880143 741.511812 259.718362 741.169966 C 259.556767 740.828121 259.403481 740.482582 259.258876 740.133164 C 259.114087 739.783747 258.977977 739.43119 258.850547 739.075124 C 258.723302 738.719058 258.604737 738.360222 258.494852 737.998246 C 258.385151 737.636455 258.284316 737.272079 258.192345 736.905301 C 258.100558 736.538524 258.017636 736.16953 257.943949 735.79869 C 257.870261 735.427849 257.805623 735.055347 257.750034 734.681367 C 257.69463 734.307202 257.648275 733.932114 257.611154 733.555733 C 257.574218 733.179352 257.546331 732.802417 257.527863 732.424743 C 257.50921 732.04707 257.499976 731.669211 257.499976 731.290984 C 257.499976 730.912756 257.50921 730.534898 257.527863 730.157224 C 257.546331 729.77955 257.574218 729.402615 257.611154 729.026234 C 257.648275 728.650038 257.69463 728.274765 257.750034 727.900601 C 257.805623 727.526621 257.870261 727.154118 257.943949 726.783278 C 258.017636 726.412437 258.100558 726.043443 258.192345 725.676666 C 258.284316 725.309889 258.385151 724.945697 258.494852 724.583721 C 258.604737 724.22193 258.723302 723.862909 258.850547 723.506843 C 258.977977 723.150777 259.114087 722.798036 259.258876 722.448618 C 259.403481 722.099385 259.556767 721.753662 259.718362 721.411816 C 259.880143 721.069971 260.050049 720.732373 260.228266 720.398838 C 260.406483 720.065303 260.592826 719.736386 260.787295 719.412085 C 260.981579 719.087784 261.18399 718.768285 261.393972 718.453957 C 261.604138 718.139445 261.821692 717.830473 262.047003 717.526671 C 262.272314 717.22287 262.504827 716.924979 262.744727 716.632813 C 262.984628 716.340462 263.231546 716.054206 263.485482 715.774044 C 263.739418 715.493698 264.000188 715.22 264.267606 714.952581 C 264.535023 714.685162 264.80872 714.424576 265.088881 714.170639 C 265.369042 713.916702 265.655297 713.669598 265.947647 713.429882 C 266.239997 713.189796 266.538072 712.957282 266.841687 712.732155 C 267.145487 712.506844 267.454458 712.289104 267.76897 712.079121 C 268.083297 711.868954 268.402794 711.666728 268.727094 711.472258 C 269.051394 711.277973 269.38031 711.091629 269.713844 710.913412 C 270.047377 710.735009 270.384974 710.565102 270.726818 710.403506 C 271.068662 710.241725 271.414385 710.088439 271.763616 709.943834 C 272.113033 709.799044 272.465773 709.662933 272.821838 709.535688 C 273.177902 709.408257 273.536737 709.289692 273.898712 709.179991 C 274.260501 709.07029 274.624877 708.969454 274.991653 708.877483 C 275.358429 708.785696 275.727421 708.702774 276.098261 708.628902 C 276.4691 708.555214 276.841601 708.490575 277.21558 708.434986 C 277.589743 708.379582 277.96483 708.333411 278.341209 708.29629 C 278.717589 708.259354 279.094523 708.231467 279.472195 708.212814 C 279.849867 708.194346 280.227909 708.185112 280.605951 708.184927 C 280.984177 708.185112 281.362034 708.194346 281.739706 708.212814 C 282.117379 708.231467 282.494497 708.259354 282.870877 708.29629 C 283.247071 708.333411 283.622343 708.379582 283.996322 708.434986 C 284.3703 708.490575 284.742802 708.555214 285.113825 708.628902 C 285.484665 708.702774 285.853472 708.785696 286.220248 708.877483 C 286.587209 708.969454 286.9514 709.07029 287.313374 709.179991 C 287.675164 709.289692 288.034184 709.408257 288.390248 709.535688 C 288.746128 709.663118 289.098869 709.799044 289.448285 709.943834 C 289.797701 710.088439 290.143239 710.241725 290.485083 710.403321 C 290.826927 710.565102 291.164524 710.735009 291.498058 710.913412 C 291.831591 711.091629 292.160508 711.277973 292.484807 711.472258 C 292.809292 711.666728 293.128605 711.868954 293.442932 712.079121 C 293.757443 712.289104 294.066414 712.506844 294.370214 712.732155 C 294.674014 712.957282 294.971904 713.189796 295.264254 713.429882 C 295.556604 713.669598 295.842859 713.916702 296.12302 714.170639 C 296.403181 714.424576 296.676878 714.685162 296.94448 714.952581 C 297.211898 715.22 297.472483 715.493698 297.726419 715.774044 C 297.980355 716.054206 298.227274 716.340462 298.467174 716.632813 C 298.707074 716.924979 298.939772 717.22287 299.164898 717.526671 C 299.390209 717.830473 299.607763 718.139445 299.81793 718.453957 C 300.028096 718.768285 300.230322 719.087784 300.424606 719.412085 C 300.619075 719.736386 300.805418 720.065303 300.983635 720.398838 C 301.161852 720.732373 301.331759 721.069971 301.493539 721.411816 C 301.655135 721.753662 301.80842 722.099385 301.95321 722.448618 C 302.097815 722.798036 302.233924 723.150777 302.361354 723.506843 C 302.488784 723.862909 302.607349 724.221745 302.71705 724.583721 C 302.82675 724.945512 302.927586 725.309889 303.019557 725.676666 C 303.111343 726.043443 303.194265 726.412437 303.267953 726.783278 C 303.341825 727.154118 303.406463 727.526621 303.461867 727.900601 C 303.517456 728.274765 303.563627 728.650038 303.600747 729.026234 C 303.637868 729.402615 303.66557 729.77955 303.684223 730.157224 C 303.702691 730.534898 303.71211 730.912756 303.711925 731.290984 Z M 303.711925 731.290984 " transform="matrix(21.151354,0,0,21.151279,-3485.395107,-11627.419649)"/></g><path style=" stroke:none;fill-rule:nonzero;fill:#024059;fill-opacity:1;" d="M 2673.351562 3849.097656 C 2673.351562 3852.898438 2673.257812 3856.699219 2673.070312 3860.5 C 2672.882812 3864.296875 2672.601562 3868.089844 2672.230469 3871.871094 C 2671.859375 3875.65625 2671.394531 3879.429688 2670.835938 3883.1875 C 2670.277344 3886.949219 2669.628906 3890.695312 2668.886719 3894.421875 C 2668.144531 3898.152344 2667.3125 3901.863281 2666.386719 3905.546875 C 2665.464844 3909.238281 2664.449219 3912.902344 2663.347656 3916.539062 C 2662.242188 3920.179688 2661.050781 3923.785156 2659.769531 3927.367188 C 2658.488281 3930.945312 2657.121094 3934.492188 2655.664062 3938.003906 C 2654.210938 3941.519531 2652.671875 3944.992188 2651.042969 3948.429688 C 2649.417969 3951.867188 2647.710938 3955.261719 2645.917969 3958.617188 C 2644.125 3961.96875 2642.25 3965.273438 2640.296875 3968.535156 C 2638.339844 3971.796875 2636.308594 3975.007812 2634.195312 3978.171875 C 2632.082031 3981.332031 2629.894531 3984.441406 2627.628906 3987.496094 C 2625.363281 3990.546875 2623.027344 3993.546875 2620.613281 3996.484375 C 2618.203125 3999.425781 2615.71875 4002.300781 2613.164062 4005.117188 C 2610.613281 4007.9375 2607.992188 4010.6875 2605.304688 4013.378906 C 2602.613281 4016.066406 2599.863281 4018.6875 2597.042969 4021.242188 C 2594.226562 4023.796875 2591.347656 4026.277344 2588.410156 4028.6875 C 2585.472656 4031.101562 2582.472656 4033.4375 2579.421875 4035.703125 C 2576.367188 4037.96875 2573.257812 4040.15625 2570.097656 4042.269531 C 2566.933594 4044.382812 2563.722656 4046.414062 2560.460938 4048.371094 C 2557.199219 4050.324219 2553.894531 4052.195312 2550.539062 4053.988281 C 2547.1875 4055.78125 2543.792969 4057.492188 2540.355469 4059.117188 C 2536.917969 4060.742188 2533.441406 4062.28125 2529.929688 4063.738281 C 2526.417969 4065.191406 2522.871094 4066.558594 2519.289062 4067.84375 C 2515.710938 4069.125 2512.101562 4070.316406 2508.464844 4071.417969 C 2504.824219 4072.523438 2501.160156 4073.535156 2497.472656 4074.460938 C 2493.785156 4075.382812 2490.074219 4076.214844 2486.347656 4076.957031 C 2482.617188 4077.699219 2478.875 4078.347656 2475.113281 4078.90625 C 2471.351562 4079.464844 2467.578125 4079.933594 2463.796875 4080.304688 C 2460.011719 4080.679688 2456.21875 4080.957031 2452.421875 4081.144531 C 2448.625 4081.328125 2444.824219 4081.421875 2441.023438 4081.425781 C 2437.222656 4081.421875 2433.421875 4081.328125 2429.625 4081.144531 C 2425.824219 4080.957031 2422.035156 4080.679688 2418.25 4080.304688 C 2414.46875 4079.933594 2410.695312 4079.46875 2406.933594 4078.910156 C 2403.171875 4078.351562 2399.425781 4077.699219 2395.699219 4076.957031 C 2391.96875 4076.214844 2388.261719 4075.382812 2384.570312 4074.460938 C 2380.882812 4073.539062 2377.222656 4072.523438 2373.582031 4071.421875 C 2369.945312 4070.316406 2366.335938 4069.125 2362.753906 4067.84375 C 2359.175781 4066.558594 2355.628906 4065.191406 2352.117188 4063.738281 C 2348.601562 4062.28125 2345.128906 4060.742188 2341.691406 4059.117188 C 2338.253906 4057.492188 2334.859375 4055.78125 2331.503906 4053.992188 C 2328.152344 4052.199219 2324.84375 4050.324219 2321.582031 4048.371094 C 2318.320312 4046.414062 2315.109375 4044.382812 2311.949219 4042.269531 C 2308.789062 4040.15625 2305.679688 4037.96875 2302.625 4035.703125 C 2299.574219 4033.4375 2296.578125 4031.101562 2293.636719 4028.6875 C 2290.699219 4026.277344 2287.820312 4023.796875 2285.003906 4021.242188 C 2282.183594 4018.6875 2279.433594 4016.066406 2276.742188 4013.378906 C 2274.054688 4010.6875 2271.433594 4007.9375 2268.882812 4005.121094 C 2266.328125 4002.300781 2263.84375 3999.425781 2261.433594 3996.484375 C 2259.019531 3993.546875 2256.683594 3990.546875 2254.417969 3987.496094 C 2252.152344 3984.441406 2249.964844 3981.332031 2247.851562 3978.171875 C 2245.738281 3975.007812 2243.703125 3971.796875 2241.75 3968.539062 C 2239.796875 3965.277344 2237.921875 3961.96875 2236.128906 3958.617188 C 2234.335938 3955.265625 2232.628906 3951.867188 2231.003906 3948.429688 C 2229.378906 3944.992188 2227.835938 3941.519531 2226.382812 3938.003906 C 2224.925781 3934.492188 2223.558594 3930.945312 2222.277344 3927.367188 C 2220.996094 3923.785156 2219.804688 3920.179688 2218.703125 3916.539062 C 2217.597656 3912.902344 2216.582031 3909.238281 2215.660156 3905.550781 C 2214.734375 3901.863281 2213.902344 3898.152344 2213.160156 3894.421875 C 2212.417969 3890.695312 2211.769531 3886.949219 2211.210938 3883.1875 C 2210.652344 3879.429688 2210.1875 3875.65625 2209.816406 3871.871094 C 2209.441406 3868.089844 2209.164062 3864.296875 2208.976562 3860.5 C 2208.789062 3856.699219 2208.699219 3852.898438 2208.699219 3849.097656 C 2208.699219 3845.296875 2208.789062 3841.496094 2208.976562 3837.699219 C 2209.164062 3833.902344 2209.441406 3830.109375 2209.816406 3826.324219 C 2210.1875 3822.542969 2210.652344 3818.769531 2211.210938 3815.007812 C 2211.769531 3811.246094 2212.417969 3807.5 2213.160156 3803.773438 C 2213.902344 3800.042969 2214.734375 3796.332031 2215.660156 3792.644531 C 2216.582031 3788.957031 2217.597656 3785.292969 2218.703125 3781.65625 C 2219.804688 3778.015625 2220.996094 3774.40625 2222.277344 3770.828125 C 2223.558594 3767.246094 2224.925781 3763.699219 2226.382812 3760.1875 C 2227.835938 3756.675781 2229.378906 3753.199219 2231.003906 3749.761719 C 2232.628906 3746.324219 2234.335938 3742.929688 2236.128906 3739.578125 C 2237.921875 3736.226562 2239.796875 3732.917969 2241.75 3729.65625 C 2243.703125 3726.394531 2245.738281 3723.183594 2247.851562 3720.023438 C 2249.964844 3716.859375 2252.152344 3713.75 2254.417969 3710.699219 C 2256.683594 3707.644531 2259.019531 3704.648438 2261.433594 3701.710938 C 2263.84375 3698.769531 2266.328125 3695.890625 2268.882812 3693.074219 C 2271.433594 3690.257812 2274.054688 3687.507812 2276.746094 3684.816406 C 2279.433594 3682.128906 2282.1875 3679.507812 2285.003906 3676.953125 C 2287.820312 3674.402344 2290.699219 3671.917969 2293.636719 3669.507812 C 2296.578125 3667.09375 2299.574219 3664.753906 2302.625 3662.492188 C 2305.679688 3660.226562 2308.789062 3658.035156 2311.949219 3655.921875 C 2315.109375 3653.8125 2318.324219 3651.777344 2321.585938 3649.824219 C 2324.84375 3647.867188 2328.152344 3645.996094 2331.503906 3644.203125 C 2334.859375 3642.410156 2338.253906 3640.703125 2341.691406 3639.078125 C 2345.128906 3637.453125 2348.601562 3635.910156 2352.117188 3634.453125 C 2355.628906 3633 2359.175781 3631.632812 2362.753906 3630.351562 C 2366.335938 3629.070312 2369.945312 3627.878906 2373.582031 3626.777344 C 2377.222656 3625.671875 2380.882812 3624.65625 2384.574219 3623.734375 C 2388.261719 3622.808594 2391.96875 3621.976562 2395.699219 3621.238281 C 2399.425781 3620.496094 2403.171875 3619.84375 2406.933594 3619.289062 C 2410.695312 3618.726562 2414.46875 3618.261719 2418.25 3617.890625 C 2422.035156 3617.519531 2425.824219 3617.238281 2429.625 3617.050781 C 2433.421875 3616.867188 2437.222656 3616.773438 2441.023438 3616.773438 C 2444.824219 3616.773438 2448.625 3616.867188 2452.421875 3617.050781 C 2456.21875 3617.238281 2460.011719 3617.519531 2463.796875 3617.894531 C 2467.578125 3618.265625 2471.351562 3618.730469 2475.113281 3619.289062 C 2478.875 3619.84375 2482.617188 3620.496094 2486.347656 3621.238281 C 2490.074219 3621.976562 2493.785156 3622.808594 2497.472656 3623.734375 C 2501.160156 3624.660156 2504.824219 3625.671875 2508.464844 3626.777344 C 2512.101562 3627.882812 2515.710938 3629.074219 2519.289062 3630.351562 C 2522.871094 3631.632812 2526.417969 3633 2529.929688 3634.457031 C 2533.441406 3635.910156 2536.917969 3637.453125 2540.355469 3639.078125 C 2543.792969 3640.703125 2547.1875 3642.410156 2550.539062 3644.203125 C 2553.894531 3645.996094 2557.199219 3647.871094 2560.460938 3649.828125 C 2563.722656 3651.78125 2566.933594 3653.8125 2570.097656 3655.925781 C 2573.257812 3658.039062 2576.367188 3660.226562 2579.421875 3662.492188 C 2582.472656 3664.753906 2585.472656 3667.09375 2588.410156 3669.507812 C 2591.347656 3671.917969 2594.226562 3674.402344 2597.042969 3676.957031 C 2599.863281 3679.507812 2602.613281 3682.128906 2605.304688 3684.816406 C 2607.992188 3687.507812 2610.613281 3690.257812 2613.164062 3693.078125 C 2615.71875 3695.894531 2618.203125 3698.773438 2620.613281 3701.710938 C 2623.027344 3704.652344 2625.363281 3707.648438 2627.628906 3710.699219 C 2629.894531 3713.753906 2632.082031 3716.863281 2634.195312 3720.023438 C 2636.308594 3723.183594 2638.339844 3726.394531 2640.296875 3729.65625 C 2642.25 3732.917969 2644.125 3736.226562 2645.917969 3739.578125 C 2647.710938 3742.929688 2649.417969 3746.328125 2651.042969 3749.761719 C 2652.671875 3753.199219 2654.210938 3756.675781 2655.664062 3760.1875 C 2657.121094 3763.703125 2658.488281 3767.25 2659.769531 3770.828125 C 2661.050781 3774.410156 2662.242188 3778.015625 2663.347656 3781.65625 C 2664.449219 3785.292969 2665.464844 3788.957031 2666.386719 3792.644531 C 2667.308594 3796.332031 2668.144531 3800.042969 2668.886719 3803.773438 C 2669.628906 3807.5 2670.277344 3811.246094 2670.835938 3815.007812 C 2671.394531 3818.769531 2671.859375 3822.542969 2672.230469 3826.328125 C 2672.601562 3830.109375 2672.882812 3833.902344 2673.070312 3837.699219 C 2673.257812 3841.496094 2673.351562 3845.296875 2673.351562 3849.097656 Z M 2673.351562 3849.097656 "/><g clip-rule="nonzero" clip-path="url(#e0fbe20211)"><path style="fill:none;stroke-width:8.033;stroke-linecap:butt;stroke-linejoin:miter;stroke:#024059;stroke-opacity:1;stroke-miterlimit:4;" d="M 291.175051 731.705963 C 291.175051 731.885658 291.170618 732.065353 291.161754 732.245048 C 291.152889 732.424559 291.139592 732.603884 291.122047 732.782656 C 291.104503 732.961612 291.082526 733.140015 291.056116 733.317678 C 291.029707 733.495527 290.99905 733.672636 290.963961 733.848822 C 290.928871 734.025193 290.889534 734.200641 290.845765 734.374795 C 290.80218 734.549319 290.754163 734.722551 290.702083 734.894489 C 290.649818 735.066612 290.593491 735.237073 290.532915 735.406426 C 290.47234 735.575594 290.407702 735.743285 290.338816 735.909314 C 290.270115 736.075527 290.19735 736.239709 290.120338 736.402229 C 290.043511 736.564749 289.962806 736.725237 289.878037 736.883878 C 289.793269 737.042335 289.704622 737.198575 289.612281 737.352784 C 289.519756 737.506994 289.423722 737.658802 289.32381 737.808394 C 289.223898 737.957801 289.120476 738.104808 289.013361 738.249228 C 288.906247 738.393465 288.795807 738.5353 288.681675 738.674181 C 288.567727 738.813246 288.45027 738.949171 288.329488 739.082327 C 288.208892 739.215667 288.084971 739.345683 287.95791 739.472928 C 287.830665 739.599989 287.70065 739.72391 287.56731 739.844692 C 287.434156 739.965474 287.298046 740.082746 287.159166 740.196695 C 287.020286 740.310828 286.878451 740.421268 286.734215 740.528383 C 286.589795 740.635498 286.442789 740.73892 286.293382 740.838832 C 286.14379 740.938745 285.991983 741.03478 285.837774 741.127305 C 285.683566 741.219646 285.527326 741.308108 285.368685 741.392877 C 285.210229 741.477646 285.049741 741.558536 284.887222 741.635364 C 284.724703 741.712191 284.560337 741.784956 284.394309 741.853842 C 284.228281 741.922543 284.060591 741.987182 283.891238 742.047942 C 283.722071 742.108518 283.551425 742.164846 283.379488 742.216926 C 283.207365 742.269191 283.034134 742.317023 282.859796 742.360793 C 282.685457 742.404378 282.51001 742.443715 282.333825 742.478804 C 282.157454 742.513894 281.98053 742.544551 281.802683 742.57096 C 281.624835 742.59737 281.446433 742.619531 281.267662 742.637076 C 281.088706 742.654806 280.909381 742.667918 280.729871 742.676783 C 280.550362 742.685463 280.370667 742.689895 280.190973 742.69008 C 280.011278 742.689895 279.831584 742.685463 279.652074 742.676783 C 279.47238 742.667918 279.293239 742.654806 279.114283 742.637076 C 278.935512 742.619531 278.757111 742.597554 278.579263 742.571145 C 278.401415 742.544735 278.224306 742.513894 278.048121 742.478804 C 277.871751 742.443715 277.696489 742.404378 277.521965 742.360793 C 277.347626 742.317208 277.174581 742.269191 277.002458 742.21711 C 276.83052 742.164846 276.659875 742.108518 276.490523 742.047942 C 276.321355 741.987182 276.153665 741.922543 275.987637 741.853842 C 275.821424 741.784956 275.657243 741.712191 275.494724 741.635364 C 275.332204 741.558536 275.171717 741.477646 275.013076 741.393062 C 274.85462 741.308293 274.698195 741.219646 274.543987 741.127305 C 274.389778 741.03478 274.23797 740.938745 274.088564 740.838832 C 273.939157 740.73892 273.792151 740.635498 273.64773 740.528383 C 273.503495 740.421268 273.361844 740.310828 273.22278 740.196695 C 273.0839 740.082746 272.94779 739.965474 272.814635 739.844692 C 272.681296 739.72391 272.55128 739.599989 272.424035 739.472928 C 272.296975 739.345683 272.173054 739.215667 272.052457 739.082511 C 271.931676 738.949171 271.814219 738.813246 271.700271 738.674181 C 271.586138 738.5353 271.475699 738.393465 271.368584 738.249228 C 271.261469 738.104808 271.158048 737.957801 271.058136 737.808394 C 270.958223 737.658802 270.862005 737.506994 270.769664 737.352969 C 270.677324 737.19876 270.588677 737.042335 270.503908 736.883878 C 270.41914 736.725421 270.338434 736.564749 270.261607 736.402229 C 270.18478 736.239709 270.111831 736.075527 270.04313 735.909314 C 269.974244 735.743285 269.909605 735.575594 269.84903 735.406426 C 269.788455 735.237073 269.732127 735.066612 269.680047 734.894489 C 269.627782 734.722551 269.579765 734.549319 269.536181 734.37498 C 269.492411 734.200641 269.453074 734.025193 269.417985 733.848822 C 269.382896 733.672636 269.352239 733.495527 269.325829 733.317678 C 269.29942 733.140015 269.277443 732.961612 269.259898 732.782656 C 269.242169 732.603884 269.229057 732.424559 269.220192 732.245048 C 269.211327 732.065353 269.207079 731.885658 269.207079 731.705963 C 269.207079 731.526268 269.211327 731.346573 269.220192 731.167062 C 269.229057 730.987552 269.242169 730.808226 269.259898 730.62927 C 269.277443 730.450498 269.29942 730.272096 269.325829 730.094247 C 269.352239 729.916399 269.382896 729.73929 269.417985 729.563104 C 269.453074 729.386733 269.492411 729.211285 269.536181 729.036946 C 269.579765 728.862607 269.627782 728.689375 269.680047 728.517437 C 269.732127 728.345314 269.788455 728.174668 269.84903 728.0055 C 269.909605 727.836147 269.974244 727.668456 270.04313 727.502427 C 270.111831 727.336399 270.18478 727.172032 270.261607 727.009512 C 270.338434 726.846993 270.41914 726.686504 270.503908 726.528048 C 270.588677 726.369591 270.677324 726.213166 270.769664 726.058957 C 270.862005 725.904748 270.958223 725.752939 271.058136 725.603532 C 271.158048 725.45394 271.261469 725.306934 271.368584 725.162697 C 271.475699 725.018276 271.586138 724.876626 271.700271 724.737745 C 271.814219 724.59868 271.931676 724.46257 272.052457 724.329415 C 272.173054 724.196259 272.296975 724.066243 272.42422 723.938998 C 272.55128 723.811937 272.68148 723.688016 272.814635 723.567234 C 272.94779 723.446637 273.0839 723.32918 273.22278 723.215231 C 273.361844 723.101098 273.503495 722.990474 273.64773 722.883543 C 273.792151 722.776428 273.939157 722.672821 274.088564 722.572909 C 274.23797 722.473181 274.389963 722.376962 274.544171 722.284621 C 274.698195 722.192096 274.85462 722.103633 275.013076 722.018864 C 275.171717 721.934095 275.332204 721.85339 275.494724 721.776562 C 275.657243 721.699735 275.821424 721.626785 275.987637 721.557899 C 276.153665 721.489198 276.321355 721.424559 276.490523 721.363984 C 276.659875 721.303408 276.83052 721.24708 277.002458 721.195 C 277.174581 721.142735 277.347626 721.094718 277.52215 721.051133 C 277.696489 721.007364 277.871751 720.968027 278.048121 720.933122 C 278.224306 720.898032 278.401415 720.86719 278.579263 720.840966 C 278.757111 720.814372 278.935512 720.792394 279.114283 720.77485 C 279.293239 720.757305 279.47238 720.744008 279.652074 720.735143 C 279.831584 720.726463 280.011278 720.722031 280.190973 720.722031 C 280.370667 720.722031 280.550362 720.726463 280.729871 720.735143 C 280.909381 720.744008 281.088706 720.757305 281.267662 720.775034 C 281.446433 720.792579 281.624835 720.814556 281.802683 720.840966 C 281.98053 720.86719 282.157454 720.898032 282.333825 720.933122 C 282.51001 720.968027 282.685457 721.007364 282.859796 721.051133 C 283.034134 721.094903 283.207365 721.142735 283.379488 721.195 C 283.551425 721.247265 283.722071 721.303593 283.891238 721.363984 C 284.060591 721.424559 284.228281 721.489198 284.394309 721.558084 C 284.560337 721.626785 284.724703 721.699735 284.887222 721.776562 C 285.049741 721.85339 285.210229 721.934095 285.368685 722.018864 C 285.527326 722.103633 285.683566 722.19228 285.837774 722.284806 C 285.991983 722.377146 286.14379 722.473181 286.293382 722.573093 C 286.442789 722.673006 286.589795 722.776428 286.734215 722.883543 C 286.878451 722.990474 287.020286 723.101098 287.159166 723.215231 C 287.298046 723.32918 287.434156 723.446637 287.56731 723.567419 C 287.70065 723.688016 287.830665 723.811937 287.95791 723.938998 C 288.084971 724.066243 288.208892 724.196259 288.329488 724.329599 C 288.45027 724.462755 288.567727 724.598865 288.681675 724.737745 C 288.795807 724.87681 288.906247 725.018461 289.013361 725.162697 C 289.120476 725.307118 289.223898 725.454125 289.32381 725.603532 C 289.423722 725.752939 289.519756 725.904748 289.612281 726.058957 C 289.704622 726.213166 289.793269 726.369591 289.878037 726.528048 C 289.962806 726.686504 290.043511 726.847177 290.120338 727.009512 C 290.19735 727.172032 290.270115 727.336399 290.338816 727.502427 C 290.407702 727.668641 290.47234 727.836331 290.532915 728.0055 C 290.593491 728.174853 290.649818 728.345314 290.702083 728.517437 C 290.754163 728.689375 290.80218 728.862607 290.845765 729.036946 C 290.889349 729.211285 290.928871 729.386733 290.963961 729.563104 C 290.99905 729.73929 291.029707 729.916399 291.056116 730.094247 C 291.082526 730.272096 291.104503 730.450498 291.122047 730.629454 C 291.139592 730.808226 291.152889 730.987552 291.161754 731.167062 C 291.170618 731.346573 291.175051 731.526268 291.175051 731.705963 Z M 291.175051 731.705963 " transform="matrix(21.151354,0,0,21.151279,-3485.395107,-11627.419649)"/></g><path style=" stroke:none;fill-rule:nonzero;fill:#e8e6eb;fill-opacity:1;" d="M 3627.585938 466.832031 C 3617.738281 414.078125 3607.894531 361.324219 3623.671875 301.207031 C 3639.453125 241.089844 3681.738281 172.179688 3756.90625 175.980469 C 3832.070312 179.78125 3936.554688 253.769531 3963.902344 318.222656 C 3991.246094 382.671875 3938.121094 432.664062 3879.777344 465.570312 C 3821.4375 498.472656 3757.886719 514.289062 3694.332031 530.105469 "/><path style=" stroke:none;fill-rule:nonzero;fill:#e8e6eb;fill-opacity:1;" d="M 4951.238281 1188.011719 C 4915.035156 1156.164062 4878.832031 1124.3125 4855.359375 1073.757812 C 4831.886719 1023.199219 4820.914062 952.464844 4872.5625 915.425781 C 4924.210938 878.382812 5034.707031 875.152344 5089.023438 905.96875 C 5143.34375 936.789062 5136.515625 999.964844 5116.625 1053.894531 C 5096.738281 1107.824219 5063.792969 1152.507812 5030.84375 1197.1875 "/><g clip-rule="nonzero" clip-path="url(#244b6093dd)"><path style="fill:none;stroke-width:8.377;stroke-linecap:butt;stroke-linejoin:miter;stroke:#024059;stroke-opacity:1;stroke-miterlimit:4;" d="M 325.899786 594.54997 C 327.531699 607.028689 329.150509 619.407882 333.754808 624.607539 C 338.359305 629.807005 345.803569 627.662202 353.693533 627.168376 C 361.583695 626.674551 369.859004 627.849054 378.134512 629.023367 " transform="matrix(19.675907,0,0,20.487378,-2981.448191,-11270.598035)"/></g><path style="fill:none;stroke-width:7.582;stroke-linecap:butt;stroke-linejoin:miter;stroke:#024059;stroke-opacity:1;stroke-miterlimit:4;" d="M 331.701118 628.981672 C 331.383656 627.23486 331.06602 625.488049 330.748384 623.741082 " transform="matrix(22.419045,0,0,25.305028,-3822.152656,-14265.695754)"/><g clip-rule="nonzero" clip-path="url(#14f90c1a60)"><path style=" stroke:none;fill-rule:nonzero;fill:#e8cdb0;fill-opacity:1;" d="M 7258.660156 2102.097656 C 7258.660156 2102.097656 7209.140625 1986.175781 7260.101562 1888.617188 L 7532.410156 1888.617188 L 7530.96875 2104.519531 Z M 7258.660156 2102.097656 "/></g><path style=" stroke:none;fill-rule:nonzero;fill:#e8cdb0;fill-opacity:1;" d="M 7782.980469 2107.390625 L 7529.609375 2107.390625 L 7529.609375 1670.695312 C 7658.007812 1568.003906 7783.835938 1667.269531 7783.835938 1667.269531 Z M 7782.980469 2107.390625 "/><path style=" stroke:none;fill-rule:nonzero;fill:#024059;fill-opacity:1;" d="M 7783.035156 2789.726562 L 7529.769531 2789.726562 L 7529.769531 2104.570312 L 7783.035156 2104.570312 Z M 7783.035156 2789.726562 "/><path style=" stroke:none;fill-rule:nonzero;fill:#024059;fill-opacity:1;" d="M 7781.207031 2793.136719 C 7781.207031 2795.25 7781.15625 2797.363281 7781.054688 2799.476562 C 7780.953125 2801.589844 7780.804688 2803.695312 7780.601562 2805.800781 C 7780.398438 2807.90625 7780.148438 2810.003906 7779.847656 2812.097656 C 7779.542969 2814.1875 7779.191406 2816.269531 7778.789062 2818.34375 C 7778.390625 2820.417969 7777.9375 2822.480469 7777.4375 2824.535156 C 7776.9375 2826.585938 7776.390625 2828.621094 7775.792969 2830.648438 C 7775.195312 2832.671875 7774.546875 2834.679688 7773.855469 2836.667969 C 7773.160156 2838.660156 7772.421875 2840.632812 7771.632812 2842.585938 C 7770.84375 2844.539062 7770.011719 2846.472656 7769.132812 2848.386719 C 7768.25 2850.296875 7767.328125 2852.1875 7766.355469 2854.050781 C 7765.386719 2855.914062 7764.371094 2857.753906 7763.3125 2859.570312 C 7762.253906 2861.382812 7761.152344 2863.167969 7760.011719 2864.929688 C 7758.867188 2866.6875 7757.683594 2868.414062 7756.457031 2870.113281 C 7755.230469 2871.8125 7753.964844 2873.480469 7752.65625 2875.113281 C 7751.351562 2876.75 7750.007812 2878.347656 7748.625 2879.917969 C 7747.242188 2881.484375 7745.824219 2883.015625 7744.367188 2884.511719 C 7742.914062 2886.003906 7741.421875 2887.464844 7739.898438 2888.882812 C 7738.371094 2890.304688 7736.8125 2891.683594 7735.222656 2893.027344 C 7733.632812 2894.367188 7732.007812 2895.667969 7730.355469 2896.929688 C 7728.703125 2898.1875 7727.019531 2899.40625 7725.308594 2900.582031 C 7723.597656 2901.753906 7721.859375 2902.886719 7720.09375 2903.972656 C 7718.328125 2905.0625 7716.535156 2906.101562 7714.722656 2907.101562 C 7712.90625 2908.097656 7711.066406 2909.046875 7709.207031 2909.953125 C 7707.347656 2910.855469 7705.464844 2911.710938 7703.5625 2912.523438 C 7701.660156 2913.332031 7699.742188 2914.09375 7697.804688 2914.804688 C 7695.867188 2915.515625 7693.910156 2916.179688 7691.941406 2916.792969 C 7689.972656 2917.410156 7687.988281 2917.972656 7685.992188 2918.484375 C 7683.996094 2919 7681.988281 2919.464844 7679.96875 2919.875 C 7677.949219 2920.289062 7675.921875 2920.648438 7673.886719 2920.960938 C 7671.851562 2921.269531 7669.808594 2921.527344 7667.757812 2921.738281 C 7665.710938 2921.945312 7663.660156 2922.097656 7661.601562 2922.203125 C 7659.546875 2922.308594 7657.488281 2922.359375 7655.429688 2922.359375 C 7653.371094 2922.359375 7651.316406 2922.308594 7649.257812 2922.203125 C 7647.203125 2922.097656 7645.152344 2921.945312 7643.101562 2921.738281 C 7641.054688 2921.527344 7639.011719 2921.269531 7636.976562 2920.960938 C 7634.941406 2920.648438 7632.910156 2920.289062 7630.894531 2919.875 C 7628.875 2919.460938 7626.867188 2919 7624.871094 2918.484375 C 7622.871094 2917.972656 7620.890625 2917.40625 7618.921875 2916.792969 C 7616.949219 2916.179688 7614.996094 2915.515625 7613.058594 2914.804688 C 7611.121094 2914.09375 7609.199219 2913.332031 7607.296875 2912.523438 C 7605.398438 2911.710938 7603.515625 2910.855469 7601.65625 2909.953125 C 7599.792969 2909.046875 7597.957031 2908.097656 7596.140625 2907.101562 C 7594.324219 2906.101562 7592.535156 2905.0625 7590.769531 2903.972656 C 7589.003906 2902.886719 7587.265625 2901.753906 7585.554688 2900.582031 C 7583.839844 2899.40625 7582.160156 2898.1875 7580.507812 2896.929688 C 7578.851562 2895.667969 7577.230469 2894.367188 7575.640625 2893.027344 C 7574.046875 2891.683594 7572.488281 2890.304688 7570.964844 2888.882812 C 7569.441406 2887.464844 7567.949219 2886.003906 7566.492188 2884.511719 C 7565.039062 2883.015625 7563.621094 2881.484375 7562.238281 2879.917969 C 7560.855469 2878.347656 7559.511719 2876.75 7558.203125 2875.113281 C 7556.898438 2873.480469 7555.632812 2871.8125 7554.40625 2870.113281 C 7553.179688 2868.414062 7551.996094 2866.6875 7550.851562 2864.929688 C 7549.707031 2863.167969 7548.605469 2861.382812 7547.550781 2859.570312 C 7546.492188 2857.753906 7545.476562 2855.914062 7544.507812 2854.050781 C 7543.535156 2852.1875 7542.609375 2850.296875 7541.730469 2848.386719 C 7540.851562 2846.472656 7540.015625 2844.539062 7539.230469 2842.585938 C 7538.441406 2840.632812 7537.699219 2838.660156 7537.007812 2836.667969 C 7536.3125 2834.679688 7535.667969 2832.671875 7535.070312 2830.648438 C 7534.472656 2828.621094 7533.925781 2826.585938 7533.425781 2824.535156 C 7532.921875 2822.480469 7532.472656 2820.417969 7532.070312 2818.34375 C 7531.667969 2816.269531 7531.316406 2814.1875 7531.015625 2812.097656 C 7530.714844 2810.003906 7530.460938 2807.90625 7530.261719 2805.800781 C 7530.058594 2803.695312 7529.90625 2801.589844 7529.804688 2799.476562 C 7529.707031 2797.363281 7529.65625 2795.25 7529.65625 2793.136719 C 7529.65625 2791.019531 7529.707031 2788.90625 7529.804688 2786.792969 C 7529.90625 2784.683594 7530.058594 2782.574219 7530.261719 2780.46875 C 7530.460938 2778.363281 7530.714844 2776.265625 7531.015625 2774.171875 C 7531.316406 2772.082031 7531.667969 2770 7532.070312 2767.925781 C 7532.472656 2765.851562 7532.921875 2763.789062 7533.425781 2761.734375 C 7533.925781 2759.683594 7534.472656 2757.648438 7535.070312 2755.625 C 7535.667969 2753.597656 7536.3125 2751.59375 7537.007812 2749.601562 C 7537.699219 2747.609375 7538.441406 2745.636719 7539.230469 2743.683594 C 7540.015625 2741.730469 7540.851562 2739.796875 7541.730469 2737.882812 C 7542.609375 2735.972656 7543.535156 2734.085938 7544.507812 2732.21875 C 7545.476562 2730.355469 7546.492188 2728.515625 7547.550781 2726.699219 C 7548.605469 2724.886719 7549.707031 2723.101562 7550.851562 2721.34375 C 7551.996094 2719.582031 7553.179688 2717.855469 7554.40625 2716.15625 C 7555.632812 2714.457031 7556.898438 2712.792969 7558.203125 2711.15625 C 7559.511719 2709.519531 7560.855469 2707.921875 7562.238281 2706.351562 C 7563.617188 2704.785156 7565.039062 2703.253906 7566.492188 2701.761719 C 7567.949219 2700.265625 7569.441406 2698.808594 7570.964844 2697.386719 C 7572.488281 2695.964844 7574.046875 2694.585938 7575.640625 2693.242188 C 7577.230469 2691.902344 7578.851562 2690.601562 7580.507812 2689.339844 C 7582.160156 2688.082031 7583.84375 2686.863281 7585.554688 2685.6875 C 7587.265625 2684.515625 7589.003906 2683.382812 7590.769531 2682.296875 C 7592.535156 2681.207031 7594.324219 2680.167969 7596.140625 2679.167969 C 7597.957031 2678.171875 7599.792969 2677.222656 7601.65625 2676.316406 C 7603.515625 2675.414062 7605.398438 2674.558594 7607.296875 2673.746094 C 7609.199219 2672.9375 7611.121094 2672.175781 7613.058594 2671.464844 C 7614.996094 2670.753906 7616.949219 2670.089844 7618.921875 2669.476562 C 7620.890625 2668.863281 7622.871094 2668.296875 7624.871094 2667.785156 C 7626.867188 2667.269531 7628.875 2666.808594 7630.894531 2666.394531 C 7632.910156 2665.980469 7634.941406 2665.621094 7636.976562 2665.308594 C 7639.011719 2665 7641.054688 2664.742188 7643.101562 2664.535156 C 7645.152344 2664.328125 7647.203125 2664.171875 7649.257812 2664.066406 C 7651.316406 2663.964844 7653.371094 2663.910156 7655.429688 2663.910156 C 7657.488281 2663.910156 7659.546875 2663.964844 7661.601562 2664.066406 C 7663.660156 2664.171875 7665.710938 2664.328125 7667.757812 2664.535156 C 7669.808594 2664.742188 7671.851562 2665 7673.886719 2665.308594 C 7675.921875 2665.621094 7677.949219 2665.980469 7679.96875 2666.394531 C 7681.988281 2666.808594 7683.996094 2667.269531 7685.992188 2667.785156 C 7687.988281 2668.296875 7689.972656 2668.863281 7691.941406 2669.476562 C 7693.910156 2670.089844 7695.867188 2670.753906 7697.804688 2671.464844 C 7699.742188 2672.175781 7701.660156 2672.9375 7703.5625 2673.746094 C 7705.464844 2674.558594 7707.347656 2675.414062 7709.207031 2676.316406 C 7711.066406 2677.222656 7712.90625 2678.171875 7714.722656 2679.167969 C 7716.535156 2680.167969 7718.328125 2681.207031 7720.09375 2682.296875 C 7721.859375 2683.382812 7723.597656 2684.515625 7725.308594 2685.691406 C 7727.019531 2686.863281 7728.703125 2688.082031 7730.355469 2689.339844 C 7732.007812 2690.601562 7733.632812 2691.902344 7735.222656 2693.242188 C 7736.8125 2694.585938 7738.371094 2695.964844 7739.898438 2697.386719 C 7741.421875 2698.808594 7742.914062 2700.265625 7744.367188 2701.761719 C 7745.824219 2703.253906 7747.242188 2704.785156 7748.625 2706.355469 C 7750.007812 2707.921875 7751.351562 2709.523438 7752.65625 2711.15625 C 7753.964844 2712.792969 7755.230469 2714.457031 7756.457031 2716.15625 C 7757.683594 2717.855469 7758.867188 2719.582031 7760.011719 2721.34375 C 7761.152344 2723.101562 7762.253906 2724.886719 7763.3125 2726.699219 C 7764.371094 2728.515625 7765.386719 2730.355469 7766.355469 2732.21875 C 7767.328125 2734.085938 7768.25 2735.972656 7769.132812 2737.882812 C 7770.011719 2739.796875 7770.84375 2741.730469 7771.632812 2743.683594 C 7772.421875 2745.636719 7773.160156 2747.609375 7773.855469 2749.601562 C 7774.546875 2751.59375 7775.195312 2753.597656 7775.792969 2755.625 C 7776.390625 2757.648438 7776.9375 2759.683594 7777.4375 2761.734375 C 7777.9375 2763.789062 7778.390625 2765.851562 7778.789062 2767.925781 C 7779.191406 2770 7779.542969 2772.082031 7779.847656 2774.175781 C 7780.148438 2776.265625 7780.398438 2778.363281 7780.601562 2780.46875 C 7780.804688 2782.574219 7780.953125 2784.683594 7781.054688 2786.792969 C 7781.15625 2788.90625 7781.207031 2791.019531 7781.207031 2793.136719 Z M 7781.207031 2793.136719 "/><path style=" stroke:none;fill-rule:nonzero;fill:#024059;fill-opacity:1;" d="M 7780.925781 2598.46875 L 7780.925781 3004.109375 L 7782.636719 3004.109375 C 7782.636719 3004.109375 7212.789062 2820.972656 7780.925781 2598.46875 Z M 7780.925781 2598.46875 "/><path style=" stroke:none;fill-rule:nonzero;fill:#024059;fill-opacity:1;" d="M 7532.792969 2779.894531 L 7781.78125 3002.398438 C 7781.78125 3002.398438 7499.425781 3001.542969 7532.792969 2779.894531 Z M 7532.792969 2779.894531 "/><path style=" stroke:none;fill-rule:nonzero;fill:#024059;fill-opacity:1;" d="M 7780.070312 2694.316406 C 7792.4375 2847.96875 7983.710938 2798.722656 7983.710938 2798.722656 C 7988.84375 2956.1875 7992.265625 3002.398438 7992.265625 3002.398438 L 7780.070312 3002.398438 C 7780.070312 3002.398438 7773.753906 2615.835938 7780.070312 2694.316406 Z M 7780.070312 2694.316406 "/><path style=" stroke:none;fill-rule:nonzero;fill:#dfb994;fill-opacity:1;" d="M 7529.691406 1888.144531 L 7782.589844 1888.144531 L 7782.589844 2102.96875 L 7529.691406 2102.96875 Z M 7529.691406 1888.144531 "/><g clip-rule="nonzero" clip-path="url(#277c441350)"><g transform="matrix(1,0,0,1,2024,1620)"><g id="287d7fdfe3" clip-path="url(#cc8759a6a1)"><g style="fill:#024059;fill-opacity:1;"><g transform="translate(1.675005, 1363.296822)"><path style="stroke:none" d="M 1198.203125 -581.546875 C 1202.878906 -549.703125 1205.21875 -504.28125 1205.21875 -445.28125 L 1205.21875 0 L 1011.375 0 L 1011.375 -389.09375 C 1011.375 -436.851562 1009.5 -477.59375 1005.75 -511.3125 C 995.445312 -590.90625 953.304688 -630.703125 879.328125 -630.703125 C 788.492188 -630.703125 743.078125 -548.296875 743.078125 -383.484375 L 743.078125 0 L 550.640625 0 L 550.640625 -389.09375 C 550.640625 -436.851562 548.765625 -477.59375 545.015625 -511.3125 C 534.710938 -590.90625 492.101562 -630.703125 417.1875 -630.703125 C 327.289062 -630.703125 282.34375 -548.296875 282.34375 -383.484375 L 282.34375 0 L 88.5 0 L 88.5 -747.296875 L 282.34375 -747.296875 L 282.34375 -633.515625 L 337.125 -723.40625 C 378.332031 -752.4375 431.242188 -766.953125 495.859375 -766.953125 C 554.847656 -766.953125 603.773438 -754.078125 642.640625 -728.328125 C 681.503906 -702.578125 708.894531 -668.160156 724.8125 -625.078125 L 797.859375 -723.40625 C 839.066406 -752.4375 892.445312 -766.953125 958 -766.953125 C 1026.351562 -766.953125 1081.132812 -749.628906 1122.34375 -714.984375 C 1163.550781 -680.335938 1188.835938 -635.859375 1198.203125 -581.546875 Z M 1198.203125 -581.546875 "/></g></g><g style="fill:#024059;fill-opacity:1;"><g transform="translate(1288.371489, 1363.296822)"><path style="stroke:none" d="M 766.953125 -389.09375 C 766.953125 -361.9375 766.019531 -339.929688 764.15625 -323.078125 L 233.171875 -323.078125 C 244.410156 -185.421875 302.003906 -116.59375 405.953125 -116.59375 C 448.097656 -116.59375 482.984375 -127.828125 510.609375 -150.296875 C 538.234375 -172.773438 555.320312 -203.679688 561.875 -243.015625 L 755.71875 -243.015625 C 736.988281 -157.796875 696.019531 -92.707031 632.8125 -47.75 C 569.601562 -2.800781 492.578125 19.671875 401.734375 19.671875 C 294.046875 19.671875 206.488281 -13.804688 139.0625 -80.765625 C 71.632812 -147.722656 37.921875 -244.414062 37.921875 -370.84375 C 37.921875 -486.957031 72.800781 -582.003906 142.5625 -655.984375 C 212.332031 -729.960938 303.875 -766.953125 417.1875 -766.953125 C 526.757812 -766.953125 612.445312 -730.898438 674.25 -658.796875 C 736.050781 -586.691406 766.953125 -496.789062 766.953125 -389.09375 Z M 408.765625 -630.703125 C 312.304688 -630.703125 255.648438 -570.300781 238.796875 -449.5 L 567.5 -449.5 C 554.382812 -570.300781 501.472656 -630.703125 408.765625 -630.703125 Z M 408.765625 -630.703125 "/></g></g><g style="fill:#024059;fill-opacity:1;"><g transform="translate(2100.282629, 1363.296822)"><path style="stroke:none" d="M 814.71875 -1032.4375 L 814.71875 0 L 620.875 0 L 620.875 -115.1875 L 564.6875 -32.3125 C 519.738281 2.34375 455.125 19.671875 370.84375 19.671875 C 267.832031 19.671875 186.59375 -15.441406 127.125 -85.671875 C 67.65625 -155.910156 37.921875 -247.21875 37.921875 -359.59375 C 37.921875 -488.832031 72.101562 -589.035156 140.46875 -660.203125 C 208.832031 -731.367188 294.050781 -766.953125 396.125 -766.953125 C 472.914062 -766.953125 531.441406 -752.90625 571.703125 -724.8125 L 620.875 -647.5625 L 620.875 -1032.4375 Z M 427.03125 -116.59375 C 485.082031 -116.59375 531.898438 -136.488281 567.484375 -176.28125 C 603.078125 -216.082031 620.875 -279.0625 620.875 -365.21875 L 620.875 -401.734375 C 620.875 -479.460938 602.613281 -537.054688 566.09375 -574.515625 C 529.570312 -611.972656 485.554688 -630.703125 434.046875 -630.703125 C 375.984375 -630.703125 328.925781 -608.460938 292.875 -563.984375 C 256.820312 -519.503906 238.796875 -455.585938 238.796875 -372.234375 C 238.796875 -295.453125 255.882812 -233.648438 290.0625 -186.828125 C 324.25 -140.003906 369.90625 -116.59375 427.03125 -116.59375 Z M 427.03125 -116.59375 "/></g></g><g style="fill:#024059;fill-opacity:1;"><g transform="translate(3006.307804, 1363.296822)"><path style="stroke:none" d="M 108.15625 -996.625 C 127.820312 -1015.820312 153.570312 -1025.421875 185.40625 -1025.421875 C 217.25 -1025.421875 243.003906 -1015.820312 262.671875 -996.625 C 282.335938 -977.425781 292.171875 -952.84375 292.171875 -922.875 C 292.171875 -891.976562 282.335938 -867.164062 262.671875 -848.4375 C 243.003906 -829.707031 217.25 -820.34375 185.40625 -820.34375 C 153.570312 -820.34375 127.820312 -829.707031 108.15625 -848.4375 C 88.488281 -867.164062 78.65625 -891.976562 78.65625 -922.875 C 78.65625 -952.84375 88.488281 -977.425781 108.15625 -996.625 Z M 282.34375 0 L 88.5 0 L 88.5 -747.296875 L 282.34375 -747.296875 Z M 282.34375 0 "/></g></g><g style="fill:#024059;fill-opacity:1;"><g transform="translate(3379.955546, 1363.296822)"><path style="stroke:none" d="M 1170.109375 -969.234375 L 1170.109375 0 L 976.25 0 L 976.25 -448.09375 C 976.25 -601.675781 977.1875 -712.175781 979.0625 -779.59375 C 952.84375 -667.21875 922.878906 -557.1875 889.171875 -449.5 L 752.90625 0 L 542.203125 0 L 403.140625 -450.90625 C 367.554688 -569.832031 338.523438 -678.929688 316.046875 -778.203125 C 317.921875 -710.773438 318.859375 -600.738281 318.859375 -448.09375 L 318.859375 0 L 125.015625 0 L 125.015625 -969.234375 L 431.234375 -969.234375 L 650.375 -178.390625 L 869.5 -969.234375 Z M 1170.109375 -969.234375 "/></g></g><g style="fill:#024059;fill-opacity:1;"><g transform="translate(4639.962866, 1363.296822)"><path style="stroke:none" d="M 522.546875 0 L 508.5 -109.5625 L 471.96875 -29.5 C 423.28125 3.28125 361.476562 19.671875 286.5625 19.671875 C 218.195312 19.671875 161.070312 0.472656 115.1875 -37.921875 C 69.300781 -76.316406 46.359375 -129.695312 46.359375 -198.0625 C 46.359375 -280.46875 81.238281 -343.910156 151 -388.390625 C 220.769531 -432.878906 323.078125 -455.125 457.921875 -455.125 L 505.6875 -455.125 L 505.6875 -470.5625 C 505.6875 -500.53125 504.75 -523.941406 502.875 -540.796875 C 496.320312 -600.734375 457.925781 -630.703125 387.6875 -630.703125 C 309.96875 -630.703125 268.296875 -588.5625 262.671875 -504.28125 L 74.453125 -502.875 C 77.253906 -585.28125 108.390625 -649.894531 167.859375 -696.71875 C 227.328125 -743.539062 302.945312 -766.953125 394.71875 -766.953125 C 581.070312 -766.953125 680.804688 -693.441406 693.921875 -546.421875 C 696.722656 -510.835938 698.125 -472.441406 698.125 -431.234375 L 698.125 -189.625 C 698.125 -132.507812 702.804688 -69.300781 712.171875 0 Z M 361 -116.59375 C 402.207031 -116.59375 436.625 -130.640625 464.25 -158.734375 C 491.875 -186.828125 505.6875 -225.6875 505.6875 -275.3125 L 505.6875 -335.71875 C 333.375 -347.894531 247.21875 -307.160156 247.21875 -213.515625 C 247.21875 -148.898438 285.144531 -116.59375 361 -116.59375 Z M 361 -116.59375 "/></g></g><g style="fill:#024059;fill-opacity:1;"><g transform="translate(5429.441127, 1363.296822)"><path style="stroke:none" d=""/></g></g><g style="fill:#024059;fill-opacity:1;"><g transform="translate(5701.951188, 1363.296822)"><path style="stroke:none" d=""/></g></g><g style="fill:#024059;fill-opacity:1;"><g transform="translate(5974.472844, 1363.296822)"><path style="stroke:none" d="M 766.953125 -389.09375 C 766.953125 -361.9375 766.019531 -339.929688 764.15625 -323.078125 L 233.171875 -323.078125 C 244.410156 -185.421875 302.003906 -116.59375 405.953125 -116.59375 C 448.097656 -116.59375 482.984375 -127.828125 510.609375 -150.296875 C 538.234375 -172.773438 555.320312 -203.679688 561.875 -243.015625 L 755.71875 -243.015625 C 736.988281 -157.796875 696.019531 -92.707031 632.8125 -47.75 C 569.601562 -2.800781 492.578125 19.671875 401.734375 19.671875 C 294.046875 19.671875 206.488281 -13.804688 139.0625 -80.765625 C 71.632812 -147.722656 37.921875 -244.414062 37.921875 -370.84375 C 37.921875 -486.957031 72.800781 -582.003906 142.5625 -655.984375 C 212.332031 -729.960938 303.875 -766.953125 417.1875 -766.953125 C 526.757812 -766.953125 612.445312 -730.898438 674.25 -658.796875 C 736.050781 -586.691406 766.953125 -496.789062 766.953125 -389.09375 Z M 408.765625 -630.703125 C 312.304688 -630.703125 255.648438 -570.300781 238.796875 -449.5 L 567.5 -449.5 C 554.382812 -570.300781 501.472656 -630.703125 408.765625 -630.703125 Z M 408.765625 -630.703125 "/></g></g></g></g></g></g></g></g></g></svg>